<svg xmlns="http://www.w3.org/2000/svg" width="64" height="64" viewBox="0 0 64 64" version="1.1"><path d="M 25.973 1.750 C 24.274 2.952, 20.840 3.656, 15 4 L 6.500 4.500 6.500 33 L 6.500 61.500 32 61.500 L 57.500 61.500 57.500 33 L 57.500 4.500 49 4 C 43.160 3.656, 39.726 2.952, 38.027 1.750 C 34.859 -0.493, 29.141 -0.493, 25.973 1.750 M 26.250 4.566 C 23.105 6.451, 22 7.748, 22 9.557 C 22 11.985, 22.062 12, 32 12 C 41.015 12, 42 11.820, 42 10.174 C 42 7.350, 35.307 1.984, 31.816 2.009 C 31.092 2.015, 28.587 3.165, 26.250 4.566 M 30.446 5.087 C 29.416 6.755, 31.733 8.667, 33.113 7.287 C 34.267 6.133, 33.545 4, 32 4 C 31.515 4, 30.816 4.489, 30.446 5.087 M 8.500 7 C 8.114 7.625, 10.156 8, 13.941 8 C 17.314 8, 20 7.557, 20 7 C 20 5.695, 9.307 5.695, 8.500 7 M 44 7 C 44 7.557, 46.686 8, 50.059 8 C 53.844 8, 55.886 7.625, 55.500 7 C 54.693 5.695, 44 5.695, 44 7 M 14 33 L 14 54 27.940 54 L 41.879 54 42.190 50.250 C 42.483 46.704, 42.704 46.483, 46.250 46.190 L 50 45.879 50 28.940 L 50 12 47.059 12 C 45.441 12, 43.840 12.450, 43.500 13 C 42.686 14.317, 21.314 14.317, 20.500 13 C 20.160 12.450, 18.559 12, 16.941 12 L 14 12 14 33 M 16 18 C 16 19.100, 16.450 20, 17 20 C 17.550 20, 18 19.100, 18 18 C 18 16.900, 17.550 16, 17 16 C 16.450 16, 16 16.900, 16 18 M 21 18 C 21 19.100, 21.450 20, 22 20 C 22.550 20, 23 19.100, 23 18 C 23 16.900, 22.550 16, 22 16 C 21.450 16, 21 16.900, 21 18 M 26 18 C 26 19.100, 26.450 20, 27 20 C 27.550 20, 28 19.100, 28 18 C 28 16.900, 27.550 16, 27 16 C 26.450 16, 26 16.900, 26 18 M 31 18 C 31 19.100, 31.450 20, 32 20 C 32.550 20, 33 19.100, 33 18 C 33 16.900, 32.550 16, 32 16 C 31.450 16, 31 16.900, 31 18 M 36 18 C 36 19.100, 36.450 20, 37 20 C 37.550 20, 38 19.100, 38 18 C 38 16.900, 37.550 16, 37 16 C 36.450 16, 36 16.900, 36 18 M 41 18 C 41 19.100, 41.450 20, 42 20 C 42.550 20, 43 19.100, 43 18 C 43 16.900, 42.550 16, 42 16 C 41.450 16, 41 16.900, 41 18 M 46 18 C 46 19.100, 46.450 20, 47 20 C 47.550 20, 48 19.100, 48 18 C 48 16.900, 47.550 16, 47 16 C 46.450 16, 46 16.900, 46 18 M 19.750 25.689 C 17.794 26.201, 17.459 27.547, 19.044 28.527 C 20.166 29.221, 23 27.323, 23 25.878 C 23 24.960, 22.625 24.938, 19.750 25.689 M 26 27 C 26 27.600, 30 28, 36 28 C 42 28, 46 27.600, 46 27 C 46 26.400, 42 26, 36 26 C 30 26, 26 26.400, 26 27 M 19.750 31.689 C 17.794 32.201, 17.459 33.547, 19.044 34.527 C 20.166 35.221, 23 33.323, 23 31.878 C 23 30.960, 22.625 30.938, 19.750 31.689 M 26 33 C 26 33.583, 29.333 34, 34 34 C 38.667 34, 42 33.583, 42 33 C 42 32.417, 38.667 32, 34 32 C 29.333 32, 26 32.417, 26 33 M 19.750 37.689 C 17.794 38.201, 17.459 39.547, 19.044 40.527 C 20.166 41.221, 23 39.323, 23 37.878 C 23 36.960, 22.625 36.938, 19.750 37.689 M 26 39 C 26 39.593, 29.667 40, 35 40 C 40.333 40, 44 39.593, 44 39 C 44 38.407, 40.333 38, 35 38 C 29.667 38, 26 38.407, 26 39 M 19.750 43.689 C 17.794 44.201, 17.459 45.547, 19.044 46.527 C 20.166 47.221, 23 45.323, 23 43.878 C 23 42.960, 22.625 42.938, 19.750 43.689 M 26 45 C 26 45.550, 27.800 46, 30 46 C 32.200 46, 34 45.550, 34 45 C 34 44.450, 32.200 44, 30 44 C 27.800 44, 26 44.450, 26 45 M 44 50.155 C 44 52.247, 44.059 52.257, 46 50.500 C 47.100 49.505, 48 48.535, 48 48.345 C 48 48.155, 47.100 48, 46 48 C 44.619 48, 44 48.667, 44 50.155" stroke="none" fill="#8f709e" fill-rule="evenodd"/><path d="M 26.250 4.566 C 23.105 6.451, 22 7.748, 22 9.557 C 22 11.985, 22.062 12, 32 12 C 41.015 12, 42 11.820, 42 10.174 C 42 7.350, 35.307 1.984, 31.816 2.009 C 31.092 2.015, 28.587 3.165, 26.250 4.566 M 30.446 5.087 C 29.416 6.755, 31.733 8.667, 33.113 7.287 C 34.267 6.133, 33.545 4, 32 4 C 31.515 4, 30.816 4.489, 30.446 5.087 M 8.500 7 C 8.114 7.625, 10.156 8, 13.941 8 C 17.314 8, 20 7.557, 20 7 C 20 5.695, 9.307 5.695, 8.500 7 M 44 7 C 44 7.557, 46.686 8, 50.059 8 C 53.844 8, 55.886 7.625, 55.500 7 C 54.693 5.695, 44 5.695, 44 7 M 14 33 L 14 54 27.940 54 L 41.879 54 42.190 50.250 C 42.483 46.704, 42.704 46.483, 46.250 46.190 L 50 45.879 50 28.940 L 50 12 47.059 12 C 45.441 12, 43.840 12.450, 43.500 13 C 42.686 14.317, 21.314 14.317, 20.500 13 C 20.160 12.450, 18.559 12, 16.941 12 L 14 12 14 33 M 16 18 C 16 19.100, 16.450 20, 17 20 C 17.550 20, 18 19.100, 18 18 C 18 16.900, 17.550 16, 17 16 C 16.450 16, 16 16.900, 16 18 M 21 18 C 21 19.100, 21.450 20, 22 20 C 22.550 20, 23 19.100, 23 18 C 23 16.900, 22.550 16, 22 16 C 21.450 16, 21 16.900, 21 18 M 26 18 C 26 19.100, 26.450 20, 27 20 C 27.550 20, 28 19.100, 28 18 C 28 16.900, 27.550 16, 27 16 C 26.450 16, 26 16.900, 26 18 M 31 18 C 31 19.100, 31.450 20, 32 20 C 32.550 20, 33 19.100, 33 18 C 33 16.900, 32.550 16, 32 16 C 31.450 16, 31 16.900, 31 18 M 36 18 C 36 19.100, 36.450 20, 37 20 C 37.550 20, 38 19.100, 38 18 C 38 16.900, 37.550 16, 37 16 C 36.450 16, 36 16.900, 36 18 M 41 18 C 41 19.100, 41.450 20, 42 20 C 42.550 20, 43 19.100, 43 18 C 43 16.900, 42.550 16, 42 16 C 41.450 16, 41 16.900, 41 18 M 46 18 C 46 19.100, 46.450 20, 47 20 C 47.550 20, 48 19.100, 48 18 C 48 16.900, 47.550 16, 47 16 C 46.450 16, 46 16.900, 46 18 M 19.750 25.689 C 17.794 26.201, 17.459 27.547, 19.044 28.527 C 20.166 29.221, 23 27.323, 23 25.878 C 23 24.960, 22.625 24.938, 19.750 25.689 M 26 27 C 26 27.600, 30 28, 36 28 C 42 28, 46 27.600, 46 27 C 46 26.400, 42 26, 36 26 C 30 26, 26 26.400, 26 27 M 19.750 31.689 C 17.794 32.201, 17.459 33.547, 19.044 34.527 C 20.166 35.221, 23 33.323, 23 31.878 C 23 30.960, 22.625 30.938, 19.750 31.689 M 26 33 C 26 33.583, 29.333 34, 34 34 C 38.667 34, 42 33.583, 42 33 C 42 32.417, 38.667 32, 34 32 C 29.333 32, 26 32.417, 26 33 M 19.750 37.689 C 17.794 38.201, 17.459 39.547, 19.044 40.527 C 20.166 41.221, 23 39.323, 23 37.878 C 23 36.960, 22.625 36.938, 19.750 37.689 M 26 39 C 26 39.593, 29.667 40, 35 40 C 40.333 40, 44 39.593, 44 39 C 44 38.407, 40.333 38, 35 38 C 29.667 38, 26 38.407, 26 39 M 19.750 43.689 C 17.794 44.201, 17.459 45.547, 19.044 46.527 C 20.166 47.221, 23 45.323, 23 43.878 C 23 42.960, 22.625 42.938, 19.750 43.689 M 26 45 C 26 45.550, 27.800 46, 30 46 C 32.200 46, 34 45.550, 34 45 C 34 44.450, 32.200 44, 30 44 C 27.800 44, 26 44.450, 26 45 M 44 50.155 C 44 52.247, 44.059 52.257, 46 50.500 C 47.100 49.505, 48 48.535, 48 48.345 C 48 48.155, 47.100 48, 46 48 C 44.619 48, 44 48.667, 44 50.155" stroke="none" fill="#fbefe2" fill-rule="evenodd"/></svg>